<?xml version="1.0" standalone="no"?><!DOCTYPE svg PUBLIC "-//W3C//DTD SVG 1.1//EN" "http://www.w3.org/Graphics/SVG/1.1/DTD/svg11.dtd"><svg t="1684368381676" class="icon" viewBox="0 0 1024 1024" version="1.1" xmlns="http://www.w3.org/2000/svg" p-id="2489" xmlns:xlink="http://www.w3.org/1999/xlink" width="200" height="200"><path d="M939.59 490.4c-0.22-4.23-1.04-8.39-2.53-12.48-0.31-0.82-0.39-1.7-0.74-2.5-0.1-0.23-0.1-0.49-0.21-0.72L792.64 162.37c-6.97-15.15-22.09-24.84-38.74-24.84H289.61c-16.65 0-31.78 9.69-38.74 24.84L107.39 474.71c-0.11 0.23-0.11 0.49-0.21 0.72-0.35 0.79-0.43 1.68-0.74 2.5-1.48 4.09-2.3 8.24-2.53 12.48-0.03 0.74-0.42 1.35-0.42 2.1 0 0.78 0.4 1.43 0.44 2.19 0.22 4.23 1.03 8.32 2.48 12.31 0.32 0.86 0.42 1.79 0.79 2.62 1.75 3.98 4.02 7.76 6.99 11.13L489.8 945.19c0.49 0.54 1.22 0.75 1.72 1.27 3.18 3.24 6.79 5.88 10.82 7.97 1.11 0.58 2.11 1.2 3.27 1.68 4.54 1.88 9.31 3.23 14.4 3.43 0.56 0.03 1.14 0.03 1.69 0.03 5.48 0 10.66-1.39 15.58-3.35 1.19-0.47 2.29-0.94 3.43-1.52 4.75-2.39 9.16-5.38 12.72-9.37 0.06-0.06 0.12-0.08 0.18-0.13L929.3 520.75c2.97-3.37 5.25-7.15 6.99-11.13 0.37-0.84 0.47-1.76 0.79-2.62 1.46-3.99 2.26-8.09 2.48-12.31 0.04-0.77 0.44-1.42 0.44-2.19 0.01-0.74-0.38-1.36-0.41-2.1z m-698.81 44.73h83.61l67.94 171.24-151.55-171.24z m83.48-85.26H212.64l104.31-227.08h96.44l-89.13 227.08z m201.67 362.04L416.1 535.13h246.12L525.93 811.91zM415.86 449.87l89.12-227.08h71.91l90.88 227.08H415.86z m284.39 201.04l57.01-115.79h45.47L700.25 650.91z m59.34-201.04l-90.86-227.08h57.84l104.31 227.08h-71.29z" p-id="2490"></path></svg>