<?xml version="1.0" standalone="no"?><!DOCTYPE svg PUBLIC "-//W3C//DTD SVG 1.1//EN" "http://www.w3.org/Graphics/SVG/1.1/DTD/svg11.dtd"><svg t="1684367188213" class="icon" viewBox="0 0 1024 1024" version="1.1" xmlns="http://www.w3.org/2000/svg" p-id="12755" xmlns:xlink="http://www.w3.org/1999/xlink" width="200" height="200"><path d="M134.144 713.216a87.552 87.552 0 0 0 86.528 88.576h563.2A87.552 87.552 0 0 0 870.4 713.216v-291.84H134.144z m443.904 7.68a79.872 79.872 0 0 1 70.656-80.384 65.024 65.024 0 0 1-34.304-58.368 62.464 62.464 0 1 1 124.928 0 65.024 65.024 0 0 1-34.816 57.856 79.36 79.36 0 0 1 74.752 80.384v4.608c0 25.6-35.84 25.6-77.824 25.6h-44.032a288.768 288.768 0 0 1-53.76-3.072c-16.384-3.584-24.064-10.752-24.064-23.04zM312.32 450.048L283.648 506.88h-42.496l29.696-56.832z m-112.64 0h41.472L212.48 506.88h-42.496zM784.896 248.832h-563.2a87.552 87.552 0 0 0-87.552 88.064v33.28H870.4v-33.28a87.552 87.552 0 0 0-85.504-88.064z" fill="" p-id="12756"></path></svg>